<?xml version="1.0" encoding="UTF-8" standalone="no"?><svg xmlns="http://www.w3.org/2000/svg" xmlns:xlink="http://www.w3.org/1999/xlink" contentStyleType="text/css" height="375px" preserveAspectRatio="none" style="width:395px;height:375px;background:#FFFFFF;" version="1.1" viewBox="0 0 395 375" width="395px" zoomAndPan="magnify"><defs/><g><!--MD5=[e5da348f9a286ac789819f64e84f1dc7]
class Entreprise--><g id="elem_Entreprise"><rect codeLine="1" fill="#F1F1F1" height="48" id="Entreprise" rx="2.5" ry="2.5" style="stroke:#181818;stroke-width:0.5;" width="108" x="187.5" y="7"/><ellipse cx="202.5" cy="23" fill="#ADD1B2" rx="11" ry="11" style="stroke:#181818;stroke-width:1.0;"/><path d="M204.8438,18.6719 C203.9063,18.2344 203.3125,18.0938 202.4375,18.0938 C199.8125,18.0938 197.8125,20.1719 197.8125,22.8906 L197.8125,24.0156 C197.8125,26.5938 199.9219,28.4844 202.8125,28.4844 C204.0313,28.4844 205.1875,28.1875 205.9375,27.6406 C206.5156,27.2344 206.8438,26.7813 206.8438,26.3906 C206.8438,25.9375 206.4531,25.5469 205.9844,25.5469 C205.7656,25.5469 205.5625,25.625 205.375,25.8125 C204.9219,26.2969 204.9219,26.2969 204.7344,26.3906 C204.3125,26.6563 203.625,26.7813 202.8594,26.7813 C200.8125,26.7813 199.5156,25.6875 199.5156,23.9844 L199.5156,22.8906 C199.5156,21.1094 200.7656,19.7969 202.5,19.7969 C203.0781,19.7969 203.6875,19.9531 204.1563,20.2031 C204.6406,20.4844 204.8125,20.7031 204.9063,21.1094 C204.9688,21.5156 205,21.6406 205.1406,21.7656 C205.2813,21.9063 205.5156,22.0156 205.7344,22.0156 C206,22.0156 206.2656,21.875 206.4375,21.6563 C206.5469,21.5 206.5781,21.3125 206.5781,20.8906 L206.5781,19.4688 C206.5781,19.0313 206.5625,18.9063 206.4688,18.75 C206.3125,18.4844 206.0313,18.3438 205.7344,18.3438 C205.4375,18.3438 205.2344,18.4375 205.0156,18.75 L204.8438,18.6719 Z " fill="#000000"/><text fill="#000000" font-family="sans-serif" font-size="14" lengthAdjust="spacing" textLength="76" x="216.5" y="27.8467">Entreprise</text><line style="stroke:#181818;stroke-width:0.5;" x1="188.5" x2="294.5" y1="39" y2="39"/><line style="stroke:#181818;stroke-width:0.5;" x1="188.5" x2="294.5" y1="47" y2="47"/></g><!--MD5=[e8de2477f0619782a88ba6174d99456f]
class Artisan--><g id="elem_Artisan"><rect codeLine="2" fill="#F1F1F1" height="96.8906" id="Artisan" rx="2.5" ry="2.5" style="stroke:#181818;stroke-width:0.5;" width="277" x="7" y="115"/><ellipse cx="115.75" cy="131" fill="#ADD1B2" rx="11" ry="11" style="stroke:#181818;stroke-width:1.0;"/><path d="M118.0938,126.6719 C117.1563,126.2344 116.5625,126.0938 115.6875,126.0938 C113.0625,126.0938 111.0625,128.1719 111.0625,130.8906 L111.0625,132.0156 C111.0625,134.5938 113.1719,136.4844 116.0625,136.4844 C117.2813,136.4844 118.4375,136.1875 119.1875,135.6406 C119.7656,135.2344 120.0938,134.7813 120.0938,134.3906 C120.0938,133.9375 119.7031,133.5469 119.2344,133.5469 C119.0156,133.5469 118.8125,133.625 118.625,133.8125 C118.1719,134.2969 118.1719,134.2969 117.9844,134.3906 C117.5625,134.6563 116.875,134.7813 116.1094,134.7813 C114.0625,134.7813 112.7656,133.6875 112.7656,131.9844 L112.7656,130.8906 C112.7656,129.1094 114.0156,127.7969 115.75,127.7969 C116.3281,127.7969 116.9375,127.9531 117.4063,128.2031 C117.8906,128.4844 118.0625,128.7031 118.1563,129.1094 C118.2188,129.5156 118.25,129.6406 118.3906,129.7656 C118.5313,129.9063 118.7656,130.0156 118.9844,130.0156 C119.25,130.0156 119.5156,129.875 119.6875,129.6563 C119.7969,129.5 119.8281,129.3125 119.8281,128.8906 L119.8281,127.4688 C119.8281,127.0313 119.8125,126.9063 119.7188,126.75 C119.5625,126.4844 119.2813,126.3438 118.9844,126.3438 C118.6875,126.3438 118.4844,126.4375 118.2656,126.75 L118.0938,126.6719 Z " fill="#000000"/><text fill="#000000" font-family="sans-serif" font-size="14" lengthAdjust="spacing" textLength="51" x="136.25" y="135.8467">Artisan</text><line style="stroke:#181818;stroke-width:0.5;" x1="8" x2="283" y1="147" y2="147"/><text fill="#000000" font-family="sans-serif" font-size="14" lengthAdjust="spacing" textLength="80" x="13" y="163.9951">Int salaireH</text><text fill="#000000" font-family="sans-serif" font-size="14" lengthAdjust="spacing" textLength="141" x="13" y="180.292">String coordonnées</text><line style="stroke:#181818;stroke-width:0.5;" x1="8" x2="283" y1="187.5938" y2="187.5938"/><text fill="#000000" font-family="sans-serif" font-size="14" lengthAdjust="spacing" textLength="265" x="13" y="204.5889">Int payeMission(Chantier pfChantier)</text></g><!--MD5=[9b01a88fa15e6e81ac57a68e1d3cc4a8]
class Spécialité--><g id="elem_Spécialité"><rect codeLine="7" fill="#F1F1F1" height="64.2969" id="Spécialité" rx="2.5" ry="2.5" style="stroke:#181818;stroke-width:0.5;" width="130" x="80.5" y="288.5"/><ellipse cx="107.2" cy="304.5" fill="#ADD1B2" rx="11" ry="11" style="stroke:#181818;stroke-width:1.0;"/><path d="M109.5438,300.1719 C108.6063,299.7344 108.0125,299.5938 107.1375,299.5938 C104.5125,299.5938 102.5125,301.6719 102.5125,304.3906 L102.5125,305.5156 C102.5125,308.0938 104.6219,309.9844 107.5125,309.9844 C108.7313,309.9844 109.8875,309.6875 110.6375,309.1406 C111.2156,308.7344 111.5438,308.2813 111.5438,307.8906 C111.5438,307.4375 111.1531,307.0469 110.6844,307.0469 C110.4656,307.0469 110.2625,307.125 110.075,307.3125 C109.6219,307.7969 109.6219,307.7969 109.4344,307.8906 C109.0125,308.1563 108.325,308.2813 107.5594,308.2813 C105.5125,308.2813 104.2156,307.1875 104.2156,305.4844 L104.2156,304.3906 C104.2156,302.6094 105.4656,301.2969 107.2,301.2969 C107.7781,301.2969 108.3875,301.4531 108.8563,301.7031 C109.3406,301.9844 109.5125,302.2031 109.6063,302.6094 C109.6688,303.0156 109.7,303.1406 109.8406,303.2656 C109.9813,303.4063 110.2156,303.5156 110.4344,303.5156 C110.7,303.5156 110.9656,303.375 111.1375,303.1563 C111.2469,303 111.2781,302.8125 111.2781,302.3906 L111.2781,300.9688 C111.2781,300.5313 111.2625,300.4063 111.1688,300.25 C111.0125,299.9844 110.7313,299.8438 110.4344,299.8438 C110.1375,299.8438 109.9344,299.9375 109.7156,300.25 L109.5438,300.1719 Z " fill="#000000"/><text fill="#000000" font-family="sans-serif" font-size="14" lengthAdjust="spacing" textLength="72" x="123.8" y="309.3467">Spécialité</text><line style="stroke:#181818;stroke-width:0.5;" x1="81.5" x2="209.5" y1="320.5" y2="320.5"/><text fill="#000000" font-family="sans-serif" font-size="14" lengthAdjust="spacing" textLength="118" x="86.5" y="337.4951">String specialité</text><line style="stroke:#181818;stroke-width:0.5;" x1="81.5" x2="209.5" y1="344.7969" y2="344.7969"/></g><!--MD5=[7231450f633845da6e92cf0373678125]
class Chantier--><g id="elem_Chantier"><rect codeLine="10" fill="#F1F1F1" height="96.8906" id="Chantier" rx="2.5" ry="2.5" style="stroke:#181818;stroke-width:0.5;" width="129" x="259" y="272"/><ellipse cx="289.75" cy="288" fill="#ADD1B2" rx="11" ry="11" style="stroke:#181818;stroke-width:1.0;"/><path d="M292.0938,283.6719 C291.1563,283.2344 290.5625,283.0938 289.6875,283.0938 C287.0625,283.0938 285.0625,285.1719 285.0625,287.8906 L285.0625,289.0156 C285.0625,291.5938 287.1719,293.4844 290.0625,293.4844 C291.2813,293.4844 292.4375,293.1875 293.1875,292.6406 C293.7656,292.2344 294.0938,291.7813 294.0938,291.3906 C294.0938,290.9375 293.7031,290.5469 293.2344,290.5469 C293.0156,290.5469 292.8125,290.625 292.625,290.8125 C292.1719,291.2969 292.1719,291.2969 291.9844,291.3906 C291.5625,291.6563 290.875,291.7813 290.1094,291.7813 C288.0625,291.7813 286.7656,290.6875 286.7656,288.9844 L286.7656,287.8906 C286.7656,286.1094 288.0156,284.7969 289.75,284.7969 C290.3281,284.7969 290.9375,284.9531 291.4063,285.2031 C291.8906,285.4844 292.0625,285.7031 292.1563,286.1094 C292.2188,286.5156 292.25,286.6406 292.3906,286.7656 C292.5313,286.9063 292.7656,287.0156 292.9844,287.0156 C293.25,287.0156 293.5156,286.875 293.6875,286.6563 C293.7969,286.5 293.8281,286.3125 293.8281,285.8906 L293.8281,284.4688 C293.8281,284.0313 293.8125,283.9063 293.7188,283.75 C293.5625,283.4844 293.2813,283.3438 292.9844,283.3438 C292.6875,283.3438 292.4844,283.4375 292.2656,283.75 L292.0938,283.6719 Z " fill="#000000"/><text fill="#000000" font-family="sans-serif" font-size="14" lengthAdjust="spacing" textLength="62" x="307.25" y="292.8467">Chantier</text><line style="stroke:#181818;stroke-width:0.5;" x1="260" x2="387" y1="304" y2="304"/><text fill="#000000" font-family="sans-serif" font-size="14" lengthAdjust="spacing" textLength="117" x="265" y="320.9951">Date dateDebut</text><text fill="#000000" font-family="sans-serif" font-size="14" lengthAdjust="spacing" textLength="93" x="265" y="337.292">Date dateFin</text><text fill="#000000" font-family="sans-serif" font-size="14" lengthAdjust="spacing" textLength="103" x="265" y="353.5889">String adresse</text><line style="stroke:#181818;stroke-width:0.5;" x1="260" x2="387" y1="360.8906" y2="360.8906"/></g><!--MD5=[73a869ac549d56a3a03d5079437b2a26]
link Entreprise to Artisan--><g id="link_Entreprise_Artisan"><path codeLine="16" d="M224.558,55.03 C213.248,70.404 197.907,91.259 183.748,110.506 " fill="none" id="Entreprise-to-Artisan" style="stroke:#181818;stroke-width:1.0;"/><polygon fill="#181818" points="180.558,114.843,189.1126,109.9626,183.5204,110.8151,182.668,105.2228,180.558,114.843" style="stroke:#181818;stroke-width:1.0;"/><text fill="#000000" font-family="sans-serif" font-size="13" lengthAdjust="spacing" textLength="8" x="211.1916" y="75.1935">1</text><text fill="#000000" font-family="sans-serif" font-size="13" lengthAdjust="spacing" textLength="23" x="160.8708" y="104.0298">0..*</text></g><!--MD5=[c2de7d0ee42670d9ff0a26fc84907427]
link Entreprise to Chantier--><g id="link_Entreprise_Chantier"><path codeLine="17" d="M263.276,55.08 C276.682,70.735 292.897,92.591 301.5,115 C320.315,164.012 324.775,224.179 325.163,266.522 " fill="none" id="Entreprise-to-Chantier" style="stroke:#181818;stroke-width:1.0;"/><polygon fill="#181818" points="325.191,271.595,329.1395,262.5723,325.1624,266.5951,321.1396,262.618,325.191,271.595" style="stroke:#181818;stroke-width:1.0;"/></g><!--MD5=[30f01977220464bfca1ed9c7ad855f5a]
link Artisan to Chantier--><g id="link_Artisan_Chantier"><path codeLine="19" d="M200.358,212.27 C220.841,230.106 244.168,250.419 264.969,268.532 " fill="none" id="Artisan-to-Chantier" style="stroke:#181818;stroke-width:1.0;"/><polygon fill="#181818" points="268.823,271.8879,264.6623,262.9611,265.0522,268.6045,259.4088,268.9944,268.823,271.8879" style="stroke:#181818;stroke-width:1.0;"/><text fill="#000000" font-family="sans-serif" font-size="13" lengthAdjust="spacing" textLength="23" x="183.1842" y="231.9144">0..*</text><text fill="#000000" font-family="sans-serif" font-size="13" lengthAdjust="spacing" textLength="23" x="236.5169" y="261.0812">0..*</text></g><!--MD5=[db8e8daf174e11ff6a51cdca04bf7a1c]
link Artisan to Spécialité--><g id="link_Artisan_Spécialité"><path codeLine="20" d="M145.5,212.27 C145.5,235.066 145.5,261.908 145.5,283.033 " fill="none" id="Artisan-to-Spécialité" style="stroke:#181818;stroke-width:1.0;"/><polygon fill="#181818" points="145.5,288.2748,149.5,279.2748,145.5,283.2748,141.5,279.2748,145.5,288.2748" style="stroke:#181818;stroke-width:1.0;"/><text fill="#000000" font-family="sans-serif" font-size="13" lengthAdjust="spacing" textLength="23" x="120.9547" y="231.9144">0..*</text><text fill="#000000" font-family="sans-serif" font-size="13" lengthAdjust="spacing" textLength="8" x="136.7125" y="277.5046">1</text></g><!--MD5=[e978a9d6ee1463a137117c4729202ec5]
@startuml
class Entreprise
class Artisan {
    Int salaireH
    String coordonnées
    Int payeMission(Chantier pfChantier)
}
class Spécialité {
    String specialité
}
class Chantier {
    Date dateDebut
    Date dateFin
    String adresse
}

Entreprise "1" - -> "0..*" Artisan
Entreprise - -> Chantier

Artisan "0..*" - -> "0..*" Chantier
Artisan "0..*" - -> "1" Spécialité
@enduml

PlantUML version 1.2022.3beta2(Unknown compile time)
(GPL source distribution)
Java Runtime: Java(TM) SE Runtime Environment
JVM: Java HotSpot(TM) 64-Bit Server VM
Default Encoding: UTF-8
Language: en
Country: US
--></g></svg>